# xmcd CD database file
#
# Track frame offsets:
#	182
#	123490
#	218500
#
# Disc length: 4365 seconds
#
# Revision: 0
# Processed by: cddbd v1.4PL0 Copyright (c) Steve Scherf et al.
# Submitted via: CDex 1.50Beta7
#
DISCID=22110b03
DTITLE=Wim Mertens - Gave Van Niets
DYEAR=1994
DGENRE=New Age
TTITLE0=No - men
TTITLE1=Wo - men
TTITLE2=Chasms
EXTD=YEAR: 1994
EXTT0=
EXTT1=
EXTT2=
PLAYORDER=
